# xmcd
#
# Track frame offsets:
#	150
#	14785
#	28251
#	47704
#	63854
#	85390
#	94719
#	113555
#	131787
#	152720
#	171079
#	183281
#	201653
#	217729
#	237482
#	250695
#
# Disc length: 3667 seconds
#
# Revision: 1
# Processed by: cddbd v1.5.2PL0 Copyright (c) Steve Scherf et al.
# Submitted via: audiograbber 1.83.01
#
DISCID=de0e5110
DTITLE=Skef Lauw - Beter zo...
DYEAR=2006
DGENRE=Ska
TTITLE0=Kopje Thee
TTITLE1=Ik zou zo graag
TTITLE2=Vergeten
TTITLE3=Ik zeg niets
TTITLE4=Muurbloem
TTITLE5=Polska
TTITLE6=Anders ft Def P
TTITLE7=Fris en Fruitig
TTITLE8=Dom
TTITLE9=Beter zo
TTITLE10=Wachten
TTITLE11=Johan
TTITLE12=Afwas
TTITLE13=Munsters
TTITLE14=Voorbij
TTITLE15=The Forestreet Philharmonic
EXTD=
EXTT0=
EXTT1=
EXTT2=
EXTT3=
EXTT4=
EXTT5=
EXTT6=
EXTT7=
EXTT8=
EXTT9=
EXTT10=
EXTT11=
EXTT12=
EXTT13=
EXTT14=
EXTT15=
PLAYORDER=
